<svg xmlns="http://www.w3.org/2000/svg" xmlns:xlink="http://www.w3.org/1999/xlink" width="500" zoomAndPan="magnify" viewBox="0 0 375 374.999991" height="500" preserveAspectRatio="xMidYMid meet" version="1.0"><defs><clipPath id="2a5223e6f5"><path d="M 326 84 L 364.800781 84 L 364.800781 100 L 326 100 Z M 326 84 " clip-rule="nonzero"/></clipPath><clipPath id="08f61028ed"><path d="M 10.105469 89 L 314 89 L 314 264 L 10.105469 264 Z M 10.105469 89 " clip-rule="nonzero"/></clipPath></defs><path fill="#68b1fd" d="M 218.699219 280.566406 C 220.15625 277.542969 223.777344 276.273438 226.804688 277.726562 C 229.820312 279.183594 231.097656 282.8125 229.636719 285.832031 L 214.054688 318.214844 C 212.597656 321.238281 208.96875 322.507812 205.953125 321.050781 C 202.925781 319.597656 201.660156 315.96875 203.117188 312.949219 Z M 218.699219 280.566406 " fill-opacity="1" fill-rule="evenodd"/><path fill="#68b1fd" d="M 269.472656 280.566406 C 270.929688 277.542969 274.558594 276.273438 277.574219 277.726562 C 280.601562 279.183594 281.867188 282.8125 280.410156 285.832031 L 264.828125 318.214844 C 263.367188 321.238281 259.738281 322.507812 256.722656 321.050781 C 253.707031 319.597656 252.429688 315.96875 253.886719 312.949219 Z M 269.472656 280.566406 " fill-opacity="1" fill-rule="evenodd"/><path fill="#68b1fd" d="M 174.464844 333.863281 C 175.910156 330.84375 179.542969 329.574219 182.566406 331.027344 C 185.582031 332.484375 186.851562 336.109375 185.402344 339.132812 L 169.808594 371.515625 C 168.363281 374.535156 164.730469 375.804688 161.707031 374.351562 C 158.691406 372.898438 157.421875 369.269531 158.871094 366.246094 Z M 174.464844 333.863281 " fill-opacity="1" fill-rule="evenodd"/><path fill="#68b1fd" d="M 224.800781 333.863281 C 226.261719 330.84375 229.890625 329.574219 232.90625 331.027344 C 235.933594 332.484375 237.199219 336.109375 235.742188 339.132812 L 220.15625 371.515625 C 218.699219 374.535156 215.070312 375.804688 212.054688 374.351562 C 209.039062 372.898438 207.761719 369.269531 209.21875 366.246094 Z M 224.800781 333.863281 " fill-opacity="1" fill-rule="evenodd"/><path fill="#fbfbfb" d="M 93.917969 332.289062 C 95.652344 332.5 97.285156 333.457031 98.300781 335.042969 L 101.898438 340.671875 L 105.5 335.042969 C 107.304688 332.21875 111.058594 331.394531 113.882812 333.199219 C 116.707031 335.007812 117.53125 338.761719 115.726562 341.585938 L 112.988281 345.871094 L 118.074219 345.871094 C 121.425781 345.871094 124.144531 348.589844 124.144531 351.945312 C 124.144531 355.296875 121.425781 358.015625 118.074219 358.015625 L 112.988281 358.015625 L 115.726562 362.300781 C 117.53125 365.125 116.707031 368.882812 113.882812 370.6875 C 111.058594 372.496094 107.304688 371.667969 105.5 368.84375 L 101.898438 363.214844 L 98.300781 368.84375 C 96.496094 371.667969 92.742188 372.496094 89.917969 370.6875 C 87.09375 368.882812 86.269531 365.125 88.074219 362.300781 L 90.8125 358.015625 L 85.726562 358.015625 C 82.375 358.015625 79.65625 355.296875 79.65625 351.945312 C 79.65625 348.589844 82.375 345.871094 85.726562 345.871094 L 90.8125 345.871094 L 88.074219 341.585938 C 86.269531 338.761719 87.09375 335.007812 89.917969 333.199219 C 90.625 332.75 91.386719 332.460938 92.164062 332.328125 C 92.746094 332.230469 93.339844 332.21875 93.917969 332.289062 Z M 93.917969 332.289062 " fill-opacity="1" fill-rule="evenodd"/><path fill="#fbfbfb" d="M 153.222656 276.816406 C 153.800781 276.734375 154.390625 276.738281 154.976562 276.824219 C 155.753906 276.945312 156.523438 277.214844 157.238281 277.65625 C 160.097656 279.410156 160.988281 283.148438 159.238281 286.007812 L 154.5625 293.625 L 163.496094 293.625 C 166.851562 293.625 169.566406 296.34375 169.566406 299.695312 C 169.566406 303.046875 166.851562 305.765625 163.496094 305.765625 L 154.5625 305.765625 L 159.234375 313.386719 C 160.988281 316.242188 160.09375 319.980469 157.238281 321.734375 C 154.382812 323.488281 150.644531 322.59375 148.890625 319.738281 L 143.710938 311.300781 L 138.535156 319.738281 C 136.78125 322.59375 133.042969 323.488281 130.1875 321.734375 C 127.328125 319.980469 126.433594 316.242188 128.1875 313.386719 L 132.863281 305.765625 L 123.929688 305.765625 C 120.574219 305.765625 117.859375 303.046875 117.859375 299.695312 C 117.859375 296.34375 120.574219 293.625 123.929688 293.625 L 132.863281 293.625 L 128.1875 286.003906 C 126.4375 283.148438 127.328125 279.410156 130.1875 277.65625 C 133.042969 275.902344 136.78125 276.796875 138.535156 279.652344 L 143.710938 288.089844 L 148.890625 279.652344 C 149.875 278.046875 151.492188 277.058594 153.222656 276.816406 Z M 153.222656 276.816406 " fill-opacity="1" fill-rule="evenodd"/><path fill="#fbfbfb" d="M 70.578125 276.777344 C 71.179688 276.691406 71.796875 276.695312 72.410156 276.785156 C 73.226562 276.910156 74.03125 277.195312 74.777344 277.65625 C 77.765625 279.488281 78.703125 283.402344 76.867188 286.390625 L 72.429688 293.625 L 82.230469 293.625 C 85.582031 293.625 88.300781 296.34375 88.300781 299.695312 C 88.300781 303.046875 85.582031 305.765625 82.230469 305.765625 L 72.429688 305.765625 L 76.867188 313 C 78.703125 315.988281 77.765625 319.898438 74.777344 321.734375 C 71.789062 323.570312 67.878906 322.636719 66.042969 319.644531 L 61.25 311.835938 L 56.460938 319.644531 C 54.625 322.632812 50.714844 323.570312 47.726562 321.734375 C 44.738281 319.898438 43.800781 315.988281 45.636719 313 L 50.074219 305.765625 L 40.273438 305.765625 C 36.921875 305.765625 34.203125 303.046875 34.203125 299.695312 C 34.203125 296.339844 36.921875 293.625 40.273438 293.625 L 50.074219 293.625 L 45.636719 286.390625 C 43.800781 283.402344 44.738281 279.488281 47.726562 277.65625 C 50.714844 275.820312 54.625 276.753906 56.460938 279.746094 L 61.25 287.554688 L 66.042969 279.746094 C 67.074219 278.0625 68.765625 277.03125 70.578125 276.777344 Z M 70.578125 276.777344 " fill-opacity="1" fill-rule="evenodd"/><path fill="#fede4d" d="M 312.113281 96.769531 C 307.777344 67.089844 280.207031 46.550781 250.539062 50.886719 C 220.871094 55.226562 200.332031 82.800781 204.671875 112.480469 C 209.007812 142.15625 236.578125 162.699219 266.246094 158.359375 C 295.914062 154.023438 316.453125 126.445312 312.113281 96.769531 Z M 312.113281 96.769531 " fill-opacity="1" fill-rule="evenodd"/><path fill="#fede4d" d="M 249.519531 4.902344 C 249.070312 1.820312 246.207031 -0.3125 243.125 0.136719 C 240.042969 0.589844 237.910156 3.453125 238.359375 6.535156 L 242.351562 33.859375 C 242.804688 36.941406 245.667969 39.078125 248.75 38.625 C 251.832031 38.175781 253.964844 35.3125 253.511719 32.226562 Z M 249.519531 4.902344 " fill-opacity="1" fill-rule="evenodd"/><path fill="#fede4d" d="M 324.496094 26.699219 C 326.261719 24.132812 325.609375 20.621094 323.042969 18.855469 C 320.476562 17.089844 316.964844 17.742188 315.199219 20.308594 L 299.566406 43.070312 C 297.804688 45.636719 298.453125 49.148438 301.023438 50.914062 C 303.589844 52.679688 307.101562 52.027344 308.863281 49.460938 Z M 324.496094 26.699219 " fill-opacity="1" fill-rule="evenodd"/><g clip-path="url(#2a5223e6f5)"><path fill="#fede4d" d="M 359.953125 95.476562 C 363.035156 95.027344 365.167969 92.160156 364.71875 89.078125 C 364.265625 85.996094 361.402344 83.863281 358.320312 84.3125 L 331.003906 88.308594 C 327.921875 88.757812 325.789062 91.621094 326.238281 94.703125 C 326.691406 97.789062 329.554688 99.921875 332.636719 99.472656 Z M 359.953125 95.476562 " fill-opacity="1" fill-rule="evenodd"/></g><path fill="#fede4d" d="M 174.140625 48.683594 C 171.71875 46.726562 171.335938 43.175781 173.296875 40.75 C 175.25 38.324219 178.796875 37.945312 181.21875 39.898438 L 202.714844 57.230469 C 205.136719 59.183594 205.519531 62.738281 203.570312 65.164062 C 201.609375 67.589844 198.058594 67.96875 195.636719 66.011719 Z M 174.140625 48.683594 " fill-opacity="1" fill-rule="evenodd"/><path fill="#fede4d" d="M 315.347656 151.070312 C 312.914062 149.113281 312.539062 145.5625 314.492188 143.136719 C 316.441406 140.714844 320 140.332031 322.421875 142.285156 L 343.917969 159.617188 C 346.339844 161.574219 346.722656 165.125 344.761719 167.550781 C 342.8125 169.976562 339.261719 170.355469 336.832031 168.402344 Z M 315.347656 151.070312 " fill-opacity="1" fill-rule="evenodd"/><g clip-path="url(#08f61028ed)"><path fill="#ffffff" d="M 199.070312 89.503906 C 241.226562 89.21875 277.320312 119.664062 281.609375 160.804688 C 281.894531 163.546875 282.03125 166.273438 282.027344 168.972656 L 282.023438 169.054688 L 283.371094 169.550781 C 300.855469 176.945312 313.125 194.265625 313.125 214.445312 C 313.125 241.359375 291.3125 263.171875 264.410156 263.171875 L 263.792969 263.136719 L 263.792969 263.171875 L 64.464844 263.171875 L 64.464844 263.144531 L 63.828125 263.171875 C 34.160156 263.171875 10.105469 241.683594 10.105469 215.171875 C 10.105469 200.257812 17.71875 186.933594 29.65625 178.128906 L 31.75 176.730469 L 31.066406 173.8125 C 28.757812 156.191406 37.046875 137.929688 53.53125 128.105469 C 64.519531 121.558594 77.074219 120.003906 88.484375 122.78125 L 92.003906 123.816406 L 92.332031 120.742188 C 95.273438 107.003906 108.003906 96.671875 123.261719 96.671875 C 131.980469 96.671875 139.875 100.046875 145.589844 105.5 L 147.140625 107.292969 L 150.464844 104.796875 C 161.898438 96.835938 175.566406 91.539062 190.5625 89.976562 C 193.421875 89.675781 196.257812 89.523438 199.070312 89.503906 Z M 199.070312 89.503906 " fill-opacity="1" fill-rule="evenodd"/></g></svg>